<?xml version="1.0" standalone="yes"?>
<svg xmlns="http://www.w3.org/2000/svg" width="564" height="400">
<path style="fill:#ffffff; stroke:none;" d="M0 0L0 400L564 400L564 0L0 0z"/>
<path style="fill:#c4d6da; stroke:none;" d="M150 4.96375C139.99 8.54898 137.145 20.0046 129.91 26.6999C116.311 39.2829 97.797 49.8459 80.9105 57.1813C66.0813 63.623 49.1371 69.7846 33 71.7145C29.8058 72.0965 26.2741 72.3002 23.0895 71.7407C18.7568 70.9796 14.4408 68.4959 10.3248 71.6034C1.11144 78.5593 2.12775 92.2713 13.0008 96.446C26.8384 101.759 43.9654 99.2178 58 95.4321C79.6864 89.5824 99.7936 79.4091 119.015 68.1566C126.524 63.7608 133.034 59.0855 140 53.8403C143.129 51.484 146.774 49.7661 149.406 46.8117C155.509 39.9598 166.24 29.3902 167.775 20C169.176 11.4204 158.555 1.89984 150 4.96375M406 4.81866C383.112 13.0752 404.537 38.3719 415.004 47.7145L422 53.9105C435.467 65.7904 452.609 74.2806 469 81.1697C486.945 88.7122 504.149 96.4257 524 97.0154C527.478 97.1187 530.591 98.4638 534 98.7477C538.954 99.1602 549.444 97.0835 553.829 94.6829C562.607 89.8781 562.118 75.5282 552.999 71.5139C543.711 67.4254 533.64 73.821 524 71.5301C495.775 64.8224 469.1 52.1332 444.999 36.2407C439.695 32.7433 434.407 28.9177 430.329 23.9992C424.149 16.5459 418.453 0.326538 406 4.81866M163.996 86.8611C160.58 87.6445 157.618 90.7732 155 92.9167C150.537 96.5708 145.85 100.009 141 103.136C127.915 111.572 114.532 117.227 100 122.193C95.5481 123.714 91.6356 126.312 87 127.33C78.9005 129.11 70.2027 130.647 62 131.791C59.3243 132.164 54.944 131.184 53.0278 133.603C51.4067 135.65 51.921 139.582 52.0895 142C52.6411 149.914 56.1098 158.431 60.1821 165.17C75.406 190.362 102.826 203.42 132 197.486C160.967 191.595 187.365 162.63 185.791 132C185.096 118.476 182.338 106.151 174.424 95.0008C172.037 91.6367 169.024 85.7084 163.996 86.8611M395.286 87.1574C390.545 88.9513 386.505 95.8244 384.174 100C375.906 114.808 374.932 136.31 381.09 152C384.901 161.712 388.859 171.219 396.093 178.996C414.529 198.812 445.193 204.062 470 193.965C488.44 186.46 501.617 170.324 508.368 152C509.969 147.655 514.134 135.931 509.397 132.179C505.324 128.954 496.007 131.389 491 130.255C485.72 129.059 480.217 129.231 475 127.791C464.837 124.986 454.526 120.801 445.001 116.289C432.284 110.266 420.256 103.61 409 95.1018C405.774 92.6633 399.853 85.4296 395.286 87.1574z"/>
<path style="fill:#ffffff; stroke:none;" d="M404.424 120.714C398.32 122.549 390.838 125.96 387.924 132.04C380.273 148.002 393.069 169.344 411.715 164.541C422.718 161.706 431.393 148.181 428.525 137C426.323 128.41 413.56 117.966 404.424 120.714M152 121.61C145.455 123.297 138.736 128.356 136.653 135C131.939 150.035 144.934 169.149 161.715 164.529C169.387 162.417 176.37 156.867 178.502 149C182.602 133.864 167.482 117.618 152 121.61z"/>
<path style="fill:#c4d6da; stroke:none;" d="M282 320.425C276.329 321.142 270.669 320.619 265 321.17C260.054 321.65 255.777 323.661 251 324.675C244.446 326.067 237.408 326.512 231 328.455C223.632 330.689 216.926 334.766 210 337.968C198.259 343.396 187.725 348.806 177 356.191C170.193 360.878 160.369 365.894 155.899 373.015C150.942 380.91 154.387 393.109 164.001 395.525C170.51 397.16 175.245 392.44 180.004 388.764C188.834 381.943 198.192 374.543 208 369.216C236.001 354.008 268.103 345.757 300 349.174C324.569 351.806 346.931 362.4 367 376.576C371.433 379.707 375.884 382.735 380 386.289C385.184 390.764 391.417 397.176 399 395.462C406.551 393.756 414.922 383.867 410.566 376.039C405.527 366.986 392.12 360.132 384 354.001C364.305 339.129 341.805 329.804 318 324.116C306.674 321.409 293.731 318.941 282 320.425z"/>
</svg>
